# xmcd
#
# Track frame offsets: 
#        150
#        11916
#        26200
#        39962
#        52973
#        63930
#        77289
#        91127
#        105301
#        120389
#        135107
#        148241
#        162699
#        176666
#        190339
#        204133
#        218484
#        231280
#        243153
#        256046
#        267029
#        280507
#        290400
#        300020
#        313716
#
# Disc length: 4320 seconds
#
# Revision: 0
# Processed by: cddbd v1.5.2PL0 Copyright (c) Steve Scherf et al.
# Submitted via: ExactAudioCopyFreeDBPlugin 1.0
#
DISCID=3e10de19
DTITLE=Various Artist - Too Late, Too Late - Vol. 6
DYEAR=1996
DGENRE=Blues
TTITLE0=Emma E. Beacham - I Know A Great Saviour, I Do
TTITLE1=Emma E. Beacham - I'm Going Through With Jesus
TTITLE2=Billy and Mary Mack - You've Got To Quit Your Low Down Ways
TTITLE3=Rev. J. M. Gates - Death's Black Train Is Coming
TTITLE4=Rev. J. M. Gates - Amazing Grace
TTITLE5=Sara Lawrence (Laura Smith) - Don't You Leave Me Here
TTITLE6=Sara Lawrence (Laura Smith) - If You Don't Like My Potatoes
TTITLE7=Dessa Foster and Howling Smith - Tell It To The Judge No.2
TTITLE8=Three Stripped Gears - Blackberry Rag
TTITLE9=Three Stripped Gears - Alabama Blues
TTITLE10=Memphis Night Hawks - Beedle Um Bum
TTITLE11=Jack Kelly's South Memphis Jug Band - Ko-Ko-Mo Blues
TTITLE12=Elder Lightfoot Solomon Michaux - Happy I Am
TTITLE13=Josh White - Black Man
TTITLE14=Peetie Wheatsstraw - Poor Millionaire Blues
TTITLE15=Curtis Jones - Decoration Day Blues
TTITLE16=One Arm Slim - Crap Shootin' Blues
TTITLE17=Charlie Burse 6 His Memphis Mudcats - I'm In Buddy's Waggon
TTITLE18=Charlie Burse 6 His Memphis Mudcats - Radio Blues
TTITLE19=Charlie Burse 6 His Memphis Mudcats - Hell's Highway
TTITLE20=Leadbelly - Grey Goose
TTITLE21=Nashville Washboard Band - Soldiers Joy
TTITLE22=Nashville Washboard Band - Old Joe
TTITLE23=Leadbelly - We Shall Be Free
TTITLE24=Leadbelly - 4, 5 And 9
EXTD=
EXTT0=
EXTT1=
EXTT2=
EXTT3=
EXTT4=
EXTT5=
EXTT6=
EXTT7=
EXTT8=
EXTT9=
EXTT10=
EXTT11=
EXTT12=
EXTT13=
EXTT14=
EXTT15=
EXTT16=
EXTT17=
EXTT18=
EXTT19=
EXTT20=
EXTT21=
EXTT22=
EXTT23=
EXTT24=
PLAYORDER=
